<svg width="264" height="264" viewBox="0 0 264 264" fill="none" xmlns="http://www.w3.org/2000/svg">
<rect width="264" height="264" rx="30" fill="#1283FE"/>
<path d="M182 173.5H132.083C122.917 173.5 115.833 181.333 111.417 189.333C107.92 195.894 102.332 201.097 95.5385 204.116C88.7454 207.136 81.138 207.798 73.9256 205.997C66.7131 204.196 60.3096 200.036 55.7329 194.178C51.1562 188.32 48.669 181.101 48.6667 173.667C48.75 167.833 50.3333 162 53.4167 157" stroke="white" stroke-width="15" stroke-linecap="round" stroke-linejoin="round"/>
<path d="M82 173.667L108.083 125.5C112.5 117.417 108.917 107.333 103.917 99.6667C101.557 95.8925 99.9767 91.6839 99.2697 87.2892C98.5626 82.8946 98.7429 78.4028 99.7999 74.0789C100.857 69.755 102.769 65.6866 105.424 62.1138C108.079 58.5409 111.422 55.5359 115.257 53.2762C119.092 51.0164 123.341 49.5476 127.753 48.9564C132.164 48.3652 136.65 48.6636 140.944 49.834C145.239 51.0044 149.256 53.0231 152.758 55.771C156.259 58.5189 159.175 61.9403 161.333 65.8333" stroke="white" stroke-width="15" stroke-linecap="round" stroke-linejoin="round"/>
<path d="M132 82L158.083 129.75C162.5 137.833 172.833 140.333 182 140.333C190.841 140.333 199.319 143.845 205.57 150.096C211.821 156.348 215.333 164.826 215.333 173.667C215.333 182.507 211.821 190.986 205.57 197.237C199.319 203.488 190.841 207 182 207" stroke="white" stroke-width="15" stroke-linecap="round" stroke-linejoin="round"/>
</svg>
