<svg width="1562" height="264" viewBox="0 0 1562 264" fill="none" xmlns="http://www.w3.org/2000/svg">
<g clip-path="url(#clip0_11_29)">
<rect x="-1.5" width="264" height="264" rx="30" fill="#1283FE"/>
<path d="M180.5 173.5H130.583C121.417 173.5 114.333 181.333 109.917 189.333C106.42 195.894 100.832 201.097 94.0385 204.116C87.2454 207.136 79.638 207.798 72.4256 205.997C65.2131 204.196 58.8096 200.036 54.2329 194.178C49.6562 188.32 47.169 181.101 47.1667 173.667C47.25 167.833 48.8333 162 51.9167 157" stroke="white" stroke-width="15" stroke-linecap="round" stroke-linejoin="round"/>
<path d="M80.5 173.667L106.583 125.5C111 117.417 107.417 107.333 102.417 99.6667C100.057 95.8925 98.4767 91.684 97.7697 87.2893C97.0626 82.8946 97.2429 78.4028 98.2999 74.0789C99.3569 69.755 101.269 65.6866 103.924 62.1138C106.579 58.5409 109.922 55.536 113.757 53.2762C117.592 51.0164 121.841 49.5476 126.253 48.9564C130.664 48.3653 135.15 48.6637 139.444 49.8341C143.739 51.0045 147.756 53.0232 151.258 55.771C154.759 58.5189 157.675 61.9403 159.833 65.8334" stroke="white" stroke-width="15" stroke-linecap="round" stroke-linejoin="round"/>
<path d="M130.5 82L156.583 129.75C161 137.833 171.333 140.333 180.5 140.333C189.341 140.333 197.819 143.845 204.07 150.096C210.321 156.348 213.833 164.826 213.833 173.667C213.833 182.507 210.321 190.986 204.07 197.237C197.819 203.488 189.341 207 180.5 207" stroke="white" stroke-width="15" stroke-linecap="round" stroke-linejoin="round"/>
<path d="M346.276 179.048C339.023 179.048 332.708 177.725 327.332 175.08C322.041 172.435 317.86 168.765 314.788 164.072C311.716 159.379 309.924 153.917 309.412 147.688L323.62 146.792C324.217 151.059 325.455 154.685 327.332 157.672C329.209 160.573 331.727 162.792 334.884 164.328C338.127 165.779 342.009 166.504 346.532 166.504C350.457 166.504 353.785 166.035 356.516 165.096C359.332 164.072 361.465 162.579 362.916 160.616C364.367 158.653 365.092 156.264 365.092 153.448C365.092 150.888 364.452 148.627 363.172 146.664C361.977 144.616 359.631 142.781 356.132 141.16C352.719 139.453 347.684 137.789 341.028 136.168C333.775 134.376 327.972 132.413 323.62 130.28C319.268 128.147 316.111 125.501 314.148 122.344C312.271 119.101 311.332 115.133 311.332 110.44C311.332 105.235 312.569 100.669 315.044 96.744C317.604 92.7333 321.231 89.6187 325.924 87.4C330.617 85.1813 336.249 84.072 342.82 84.072C349.732 84.072 355.62 85.352 360.484 87.912C365.433 90.472 369.316 93.9707 372.132 98.408C375.033 102.845 376.825 107.923 377.508 113.64L363.3 114.408C362.873 110.909 361.807 107.837 360.1 105.192C358.393 102.461 356.089 100.371 353.188 98.92C350.287 97.384 346.745 96.616 342.564 96.616C337.273 96.616 333.092 97.8533 330.02 100.328C327.033 102.717 325.54 105.917 325.54 109.928C325.54 112.488 326.137 114.664 327.332 116.456C328.612 118.163 330.831 119.656 333.988 120.936C337.231 122.216 341.796 123.581 347.684 125.032C355.535 126.824 361.764 129.043 366.372 131.688C371.065 134.248 374.393 137.277 376.356 140.776C378.319 144.275 379.3 148.243 379.3 152.68C379.3 158.056 377.892 162.749 375.076 166.76C372.345 170.685 368.505 173.715 363.556 175.848C358.607 177.981 352.847 179.048 346.276 179.048ZM393.975 177V108.904H407.543V177H393.975ZM393.719 99.048V85.48H407.799V99.048H393.719ZM427.85 177V108.904H440.266L440.65 125.8L439.114 125.288C439.882 121.533 441.205 118.333 443.082 115.688C445.045 113.043 447.434 110.995 450.25 109.544C453.066 108.093 456.138 107.368 459.466 107.368C465.269 107.368 470.005 109.032 473.674 112.36C477.343 115.603 479.647 120.083 480.586 125.8H478.41C479.178 121.789 480.458 118.461 482.25 115.816C484.127 113.085 486.517 110.995 489.418 109.544C492.319 108.093 495.605 107.368 499.274 107.368C504.053 107.368 508.106 108.392 511.434 110.44C514.847 112.403 517.407 115.304 519.114 119.144C520.906 122.984 521.802 127.677 521.802 133.224V177H508.234V136.552C508.234 130.664 507.167 126.227 505.034 123.24C502.901 120.253 499.658 118.76 495.306 118.76C492.49 118.76 490.015 119.485 487.882 120.936C485.749 122.387 484.085 124.477 482.89 127.208C481.781 129.939 481.226 133.224 481.226 137.064V177H468.298V137.064C468.298 131.261 467.317 126.781 465.354 123.624C463.477 120.381 460.234 118.76 455.626 118.76C452.725 118.76 450.207 119.485 448.074 120.936C446.026 122.387 444.405 124.52 443.21 127.336C442.015 130.067 441.418 133.309 441.418 137.064V177H427.85ZM538.725 196.2V108.904H551.525L551.909 123.496L550.373 122.728C552.08 117.693 554.896 113.896 558.821 111.336C562.746 108.691 567.269 107.368 572.389 107.368C579.045 107.368 584.506 109.032 588.773 112.36C593.125 115.603 596.325 119.912 598.373 125.288C600.506 130.664 601.573 136.552 601.573 142.952C601.573 149.352 600.506 155.24 598.373 160.616C596.325 165.992 593.125 170.344 588.773 173.672C584.506 176.915 579.045 178.536 572.389 178.536C568.976 178.536 565.776 177.939 562.789 176.744C559.802 175.549 557.242 173.885 555.109 171.752C553.061 169.533 551.61 166.931 550.757 163.944L552.293 162.408V196.2H538.725ZM569.957 166.76C575.418 166.76 579.685 164.669 582.757 160.488C585.914 156.307 587.493 150.461 587.493 142.952C587.493 135.443 585.914 129.597 582.757 125.416C579.685 121.235 575.418 119.144 569.957 119.144C566.373 119.144 563.258 120.04 560.613 121.832C557.968 123.539 555.92 126.184 554.469 129.768C553.018 133.352 552.293 137.747 552.293 142.952C552.293 148.157 552.976 152.552 554.341 156.136C555.792 159.72 557.84 162.408 560.485 164.2C563.216 165.907 566.373 166.76 569.957 166.76ZM630.823 177C626.386 177 622.802 175.848 620.071 173.544C617.34 171.24 615.975 167.571 615.975 162.536V86.12H629.543V161.256C629.543 162.792 629.927 163.944 630.695 164.712C631.548 165.48 632.743 165.864 634.279 165.864H639.655V177H630.823ZM651.1 177V108.904H664.668V177H651.1ZM650.844 99.048V85.48H664.924V99.048H650.844ZM686.637 177V104.552C686.637 98.92 688.216 94.44 691.373 91.112C694.53 87.784 699.48 86.12 706.221 86.12H718.253V97.256H708.013C705.368 97.256 703.405 97.9813 702.125 99.432C700.845 100.797 700.205 102.76 700.205 105.32V177H686.637ZM677.165 120.808V109.8H717.229V120.808H677.165ZM730.541 177V108.904H744.109V177H730.541ZM730.413 99.048V85.48H744.493V99.048H730.413ZM790.257 178.536C783.601 178.536 777.841 177.085 772.977 174.184C768.198 171.283 764.486 167.144 761.841 161.768C759.281 156.392 758.001 150.12 758.001 142.952C758.001 135.784 759.281 129.555 761.841 124.264C764.486 118.888 768.198 114.749 772.977 111.848C777.756 108.861 783.388 107.368 789.873 107.368C796.017 107.368 801.436 108.819 806.129 111.72C810.822 114.536 814.449 118.632 817.009 124.008C819.654 129.384 820.977 135.869 820.977 143.464V146.92H772.081C772.422 153.576 774.172 158.568 777.329 161.896C780.572 165.224 784.924 166.888 790.385 166.888C794.396 166.888 797.724 165.949 800.369 164.072C803.014 162.195 804.849 159.677 805.873 156.52L819.953 157.416C818.161 163.731 814.62 168.851 809.329 172.776C804.124 176.616 797.766 178.536 790.257 178.536ZM772.081 136.68H806.641C806.214 130.621 804.465 126.141 801.393 123.24C798.406 120.339 794.566 118.888 789.873 118.888C785.009 118.888 780.998 120.424 777.841 123.496C774.769 126.483 772.849 130.877 772.081 136.68ZM858.917 178.536C853.114 178.536 848.037 177.085 843.685 174.184C839.418 171.283 836.133 167.187 833.829 161.896C831.61 156.52 830.501 150.205 830.501 142.952C830.501 135.699 831.653 129.427 833.957 124.136C836.261 118.76 839.546 114.621 843.813 111.72C848.08 108.819 853.114 107.368 858.917 107.368C863.61 107.368 867.792 108.349 871.461 110.312C875.13 112.275 877.904 115.005 879.781 118.504V86.12H893.349V177H880.677L880.293 166.76C878.416 170.429 875.557 173.331 871.717 175.464C867.962 177.512 863.696 178.536 858.917 178.536ZM862.501 166.76C866.17 166.76 869.285 165.821 871.845 163.944C874.405 162.067 876.368 159.336 877.733 155.752C879.098 152.168 879.781 147.901 879.781 142.952C879.781 137.832 879.098 133.523 877.733 130.024C876.368 126.44 874.405 123.752 871.845 121.96C869.285 120.083 866.17 119.144 862.501 119.144C857.04 119.144 852.688 121.277 849.445 125.544C846.202 129.725 844.581 135.528 844.581 142.952C844.581 150.291 846.202 156.093 849.445 160.36C852.688 164.627 857.04 166.76 862.501 166.76ZM963.053 177L938.989 86.12H953.709L971.373 157.928L989.037 86.12H1003.12L1020.78 157.928L1038.32 86.12H1053.29L1029.1 177H1012.97L996.077 110.696L979.181 177H963.053ZM1090.01 178.536C1083.35 178.536 1077.59 177.085 1072.73 174.184C1067.95 171.283 1064.24 167.144 1061.59 161.768C1059.03 156.392 1057.75 150.12 1057.75 142.952C1057.75 135.784 1059.03 129.555 1061.59 124.264C1064.24 118.888 1067.95 114.749 1072.73 111.848C1077.51 108.861 1083.14 107.368 1089.62 107.368C1095.77 107.368 1101.19 108.819 1105.88 111.72C1110.57 114.536 1114.2 118.632 1116.76 124.008C1119.4 129.384 1120.73 135.869 1120.73 143.464V146.92H1071.83C1072.17 153.576 1073.92 158.568 1077.08 161.896C1080.32 165.224 1084.67 166.888 1090.14 166.888C1094.15 166.888 1097.47 165.949 1100.12 164.072C1102.76 162.195 1104.6 159.677 1105.62 156.52L1119.7 157.416C1117.91 163.731 1114.37 168.851 1109.08 172.776C1103.87 176.616 1097.52 178.536 1090.01 178.536ZM1071.83 136.68H1106.39C1105.96 130.621 1104.22 126.141 1101.14 123.24C1098.16 120.339 1094.32 118.888 1089.62 118.888C1084.76 118.888 1080.75 120.424 1077.59 123.496C1074.52 126.483 1072.6 130.877 1071.83 136.68ZM1168.4 178.536C1163.7 178.536 1159.52 177.512 1155.85 175.464C1152.27 173.331 1149.49 170.429 1147.53 166.76L1147.15 177H1134.48V86.12H1148.04V118.504C1149.84 115.517 1152.48 112.915 1155.98 110.696C1159.56 108.477 1163.7 107.368 1168.4 107.368C1174.28 107.368 1179.4 108.819 1183.76 111.72C1188.11 114.621 1191.44 118.76 1193.74 124.136C1196.13 129.427 1197.32 135.699 1197.32 142.952C1197.32 150.205 1196.13 156.52 1193.74 161.896C1191.44 167.187 1188.11 171.283 1183.76 174.184C1179.4 177.085 1174.28 178.536 1168.4 178.536ZM1166.22 166.76C1171.42 166.76 1175.56 164.669 1178.64 160.488C1181.71 156.221 1183.24 150.376 1183.24 142.952C1183.24 135.528 1181.71 129.725 1178.64 125.544C1175.56 121.277 1171.47 119.144 1166.35 119.144C1162.51 119.144 1159.22 120.083 1156.49 121.96C1153.76 123.837 1151.67 126.568 1150.22 130.152C1148.77 133.651 1148.04 137.917 1148.04 142.952C1148.04 147.816 1148.77 152.04 1150.22 155.624C1151.67 159.208 1153.76 161.981 1156.49 163.944C1159.22 165.821 1162.46 166.76 1166.22 166.76ZM1211.1 177V86.12H1224.67V124.264L1223 124.008C1223.77 120.168 1225.18 117.053 1227.23 114.664C1229.28 112.189 1231.79 110.355 1234.78 109.16C1237.77 107.965 1241.05 107.368 1244.64 107.368C1249.59 107.368 1253.77 108.477 1257.18 110.696C1260.59 112.829 1263.15 115.859 1264.86 119.784C1266.65 123.709 1267.55 128.189 1267.55 133.224V177H1253.98V136.808C1253.98 130.664 1252.91 126.141 1250.78 123.24C1248.73 120.253 1245.49 118.76 1241.05 118.76C1236.1 118.76 1232.13 120.339 1229.15 123.496C1226.16 126.568 1224.67 131.091 1224.67 137.064V177H1211.1ZM1313.26 178.536C1306.77 178.536 1301.1 177.085 1296.23 174.184C1291.37 171.283 1287.61 167.144 1284.97 161.768C1282.32 156.392 1281 150.12 1281 142.952C1281 135.699 1282.32 129.427 1284.97 124.136C1287.61 118.845 1291.37 114.749 1296.23 111.848C1301.1 108.861 1306.77 107.368 1313.26 107.368C1319.74 107.368 1325.42 108.861 1330.28 111.848C1335.15 114.749 1338.9 118.845 1341.55 124.136C1344.19 129.427 1345.51 135.699 1345.51 142.952C1345.51 150.12 1344.19 156.392 1341.55 161.768C1338.9 167.144 1335.15 171.283 1330.28 174.184C1325.42 177.085 1319.74 178.536 1313.26 178.536ZM1313.26 166.76C1319.06 166.76 1323.54 164.669 1326.7 160.488C1329.85 156.221 1331.43 150.376 1331.43 142.952C1331.43 135.528 1329.85 129.725 1326.7 125.544C1323.54 121.277 1319.06 119.144 1313.26 119.144C1307.54 119.144 1303.06 121.277 1299.82 125.544C1296.66 129.725 1295.08 135.528 1295.08 142.952C1295.08 150.376 1296.66 156.221 1299.82 160.488C1303.06 164.669 1307.54 166.76 1313.26 166.76ZM1387.26 178.536C1380.77 178.536 1375.1 177.085 1370.23 174.184C1365.37 171.283 1361.61 167.144 1358.97 161.768C1356.32 156.392 1355 150.12 1355 142.952C1355 135.699 1356.32 129.427 1358.97 124.136C1361.61 118.845 1365.37 114.749 1370.23 111.848C1375.1 108.861 1380.77 107.368 1387.26 107.368C1393.74 107.368 1399.42 108.861 1404.28 111.848C1409.15 114.749 1412.9 118.845 1415.55 124.136C1418.19 129.427 1419.51 135.699 1419.51 142.952C1419.51 150.12 1418.19 156.392 1415.55 161.768C1412.9 167.144 1409.15 171.283 1404.28 174.184C1399.42 177.085 1393.74 178.536 1387.26 178.536ZM1387.26 166.76C1393.06 166.76 1397.54 164.669 1400.7 160.488C1403.85 156.221 1405.43 150.376 1405.43 142.952C1405.43 135.528 1403.85 129.725 1400.7 125.544C1397.54 121.277 1393.06 119.144 1387.26 119.144C1381.54 119.144 1377.06 121.277 1373.82 125.544C1370.66 129.725 1369.08 135.528 1369.08 142.952C1369.08 150.376 1370.66 156.221 1373.82 160.488C1377.06 164.669 1381.54 166.76 1387.26 166.76ZM1433.23 177V86.12H1446.79V142.568L1477.39 108.904H1494.54L1467.91 137.576L1495.56 177H1479.95L1458.83 146.024L1446.79 158.824V177H1433.23ZM1530.22 178.536C1523.82 178.536 1518.4 177.555 1513.96 175.592C1509.61 173.629 1506.24 170.941 1503.85 167.528C1501.46 164.029 1500.09 160.019 1499.75 155.496L1513.7 154.856C1514.39 158.611 1516.01 161.597 1518.57 163.816C1521.13 166.035 1525.01 167.144 1530.22 167.144C1534.48 167.144 1537.85 166.461 1540.33 165.096C1542.8 163.731 1544.04 161.555 1544.04 158.568C1544.04 156.947 1543.61 155.581 1542.76 154.472C1541.99 153.277 1540.46 152.296 1538.15 151.528C1535.85 150.675 1532.43 149.864 1527.91 149.096C1521.17 147.816 1515.88 146.323 1512.04 144.616C1508.2 142.909 1505.47 140.733 1503.85 138.088C1502.23 135.443 1501.42 132.243 1501.42 128.488C1501.42 122.259 1503.72 117.181 1508.33 113.256C1513.02 109.331 1519.76 107.368 1528.55 107.368C1534.44 107.368 1539.39 108.392 1543.4 110.44C1547.41 112.403 1550.52 115.091 1552.74 118.504C1555.05 121.832 1556.5 125.587 1557.1 129.768L1543.14 130.536C1542.72 128.147 1541.86 126.099 1540.58 124.392C1539.39 122.6 1537.77 121.235 1535.72 120.296C1533.67 119.272 1531.24 118.76 1528.42 118.76C1524.07 118.76 1520.83 119.613 1518.7 121.32C1516.56 123.027 1515.5 125.245 1515.5 127.976C1515.5 130.024 1515.96 131.688 1516.9 132.968C1517.93 134.248 1519.55 135.315 1521.77 136.168C1523.99 136.936 1526.93 137.619 1530.6 138.216C1537.68 139.411 1543.23 140.904 1547.24 142.696C1551.25 144.403 1554.07 146.536 1555.69 149.096C1557.31 151.656 1558.12 154.771 1558.12 158.44C1558.12 162.707 1556.92 166.333 1554.54 169.32C1552.15 172.307 1548.86 174.611 1544.68 176.232C1540.5 177.768 1535.68 178.536 1530.22 178.536Z" fill="white"/>
</g>
<defs>
<clipPath id="clip0_11_29">
<rect width="1562" height="264" fill="white"/>
</clipPath>
</defs>
</svg>
