<svg width="698" height="264" viewBox="0 0 698 264" fill="none" xmlns="http://www.w3.org/2000/svg">
<g clip-path="url(#clip0_9_8)">
<rect width="698" height="264" fill="white"/>
<rect width="264" height="264" rx="30" fill="#1283FE"/>
<path d="M182 173.5H132.083C122.917 173.5 115.833 181.333 111.417 189.333C107.92 195.894 102.332 201.097 95.5385 204.116C88.7454 207.136 81.138 207.798 73.9256 205.997C66.7131 204.196 60.3096 200.036 55.7329 194.178C51.1562 188.32 48.669 181.101 48.6667 173.667C48.75 167.833 50.3333 162 53.4167 157" stroke="white" stroke-width="15" stroke-linecap="round" stroke-linejoin="round"/>
<path d="M82 173.667L108.083 125.5C112.5 117.417 108.917 107.333 103.917 99.6667C101.557 95.8925 99.9767 91.6839 99.2697 87.2892C98.5626 82.8946 98.7429 78.4028 99.7999 74.0789C100.857 69.755 102.769 65.6866 105.424 62.1138C108.079 58.5409 111.422 55.5359 115.257 53.2762C119.092 51.0164 123.341 49.5476 127.753 48.9564C132.164 48.3652 136.65 48.6636 140.944 49.834C145.239 51.0044 149.256 53.0231 152.758 55.771C156.259 58.5189 159.175 61.9403 161.333 65.8333" stroke="white" stroke-width="15" stroke-linecap="round" stroke-linejoin="round"/>
<path d="M132 82L158.083 129.75C162.5 137.833 172.833 140.333 182 140.333C190.841 140.333 199.319 143.845 205.57 150.096C211.821 156.348 215.333 164.826 215.333 173.667C215.333 182.507 211.821 190.986 205.57 197.237C199.319 203.488 190.841 207 182 207" stroke="white" stroke-width="15" stroke-linecap="round" stroke-linejoin="round"/>
<path d="M331.36 109.28C326.827 109.28 322.88 108.453 319.52 106.8C316.213 105.147 313.6 102.853 311.68 99.92C309.76 96.9867 308.64 93.5733 308.32 89.68L317.2 89.12C317.573 91.7867 318.347 94.0533 319.52 95.92C320.693 97.7333 322.267 99.12 324.24 100.08C326.267 100.987 328.693 101.44 331.52 101.44C333.973 101.44 336.053 101.147 337.76 100.56C339.52 99.92 340.853 98.9867 341.76 97.76C342.667 96.5333 343.12 95.04 343.12 93.28C343.12 91.68 342.72 90.2667 341.92 89.04C341.173 87.76 339.707 86.6133 337.52 85.6C335.387 84.5333 332.24 83.4933 328.08 82.48C323.547 81.36 319.92 80.1333 317.2 78.8C314.48 77.4667 312.507 75.8133 311.28 73.84C310.107 71.8133 309.52 69.3333 309.52 66.4C309.52 63.1467 310.293 60.2933 311.84 57.84C313.44 55.3333 315.707 53.3867 318.64 52C321.573 50.6133 325.093 49.92 329.2 49.92C333.52 49.92 337.2 50.72 340.24 52.32C343.333 53.92 345.76 56.1067 347.52 58.88C349.333 61.6533 350.453 64.8267 350.88 68.4L342 68.88C341.733 66.6933 341.067 64.7733 340 63.12C338.933 61.4133 337.493 60.1067 335.68 59.2C333.867 58.24 331.653 57.76 329.04 57.76C325.733 57.76 323.12 58.5333 321.2 60.08C319.333 61.5733 318.4 63.5733 318.4 66.08C318.4 67.68 318.773 69.04 319.52 70.16C320.32 71.2267 321.707 72.16 323.68 72.96C325.707 73.76 328.56 74.6133 332.24 75.52C337.147 76.64 341.04 78.0267 343.92 79.68C346.853 81.28 348.933 83.1733 350.16 85.36C351.387 87.5467 352 90.0267 352 92.8C352 96.16 351.12 99.0933 349.36 101.6C347.653 104.053 345.253 105.947 342.16 107.28C339.067 108.613 335.467 109.28 331.36 109.28ZM361.172 108V65.44H369.652V108H361.172ZM361.012 59.28V50.8H369.812V59.28H361.012ZM382.344 108V65.44H390.104L390.344 76L389.384 75.68C389.864 73.3333 390.69 71.3333 391.864 69.68C393.09 68.0267 394.584 66.7467 396.344 65.84C398.104 64.9333 400.024 64.48 402.104 64.48C405.73 64.48 408.69 65.52 410.984 67.6C413.277 69.6267 414.717 72.4267 415.304 76H413.944C414.424 73.4933 415.224 71.4133 416.344 69.76C417.517 68.0533 419.01 66.7467 420.824 65.84C422.637 64.9333 424.69 64.48 426.984 64.48C429.97 64.48 432.504 65.12 434.584 66.4C436.717 67.6267 438.317 69.44 439.384 71.84C440.504 74.24 441.064 77.1733 441.064 80.64V108H432.584V82.72C432.584 79.04 431.917 76.2667 430.584 74.4C429.25 72.5333 427.224 71.6 424.504 71.6C422.744 71.6 421.197 72.0533 419.864 72.96C418.53 73.8667 417.49 75.1733 416.744 76.88C416.05 78.5867 415.704 80.64 415.704 83.04V108H407.624V83.04C407.624 79.4133 407.01 76.6133 405.784 74.64C404.61 72.6133 402.584 71.6 399.704 71.6C397.89 71.6 396.317 72.0533 394.984 72.96C393.704 73.8667 392.69 75.2 391.944 76.96C391.197 78.6667 390.824 80.6933 390.824 83.04V108H382.344ZM451.641 120V65.44H459.641L459.881 74.56L458.921 74.08C459.987 70.9333 461.747 68.56 464.201 66.96C466.654 65.3067 469.481 64.48 472.681 64.48C476.841 64.48 480.254 65.52 482.921 67.6C485.641 69.6267 487.641 72.32 488.921 75.68C490.254 79.04 490.921 82.72 490.921 86.72C490.921 90.72 490.254 94.4 488.921 97.76C487.641 101.12 485.641 103.84 482.921 105.92C480.254 107.947 476.841 108.96 472.681 108.96C470.547 108.96 468.547 108.587 466.681 107.84C464.814 107.093 463.214 106.053 461.881 104.72C460.601 103.333 459.694 101.707 459.161 99.84L460.121 98.88V120H451.641ZM471.161 101.6C474.574 101.6 477.241 100.293 479.161 97.68C481.134 95.0667 482.121 91.4133 482.121 86.72C482.121 82.0267 481.134 78.3733 479.161 75.76C477.241 73.1467 474.574 71.84 471.161 71.84C468.921 71.84 466.974 72.4 465.321 73.52C463.667 74.5867 462.387 76.24 461.481 78.48C460.574 80.72 460.121 83.4667 460.121 86.72C460.121 89.9733 460.547 92.72 461.401 94.96C462.307 97.2 463.587 98.88 465.241 100C466.947 101.067 468.921 101.6 471.161 101.6ZM509.202 108C506.429 108 504.189 107.28 502.482 105.84C500.775 104.4 499.922 102.107 499.922 98.96V51.2H508.402V98.16C508.402 99.12 508.642 99.84 509.122 100.32C509.655 100.8 510.402 101.04 511.362 101.04H514.722V108H509.202ZM521.875 108V65.44H530.355V108H521.875ZM521.715 59.28V50.8H530.515V59.28H521.715ZM544.086 108V62.72C544.086 59.2 545.072 56.4 547.046 54.32C549.019 52.24 552.112 51.2 556.326 51.2H563.846V58.16H557.446C555.792 58.16 554.566 58.6133 553.766 59.52C552.966 60.3733 552.566 61.6 552.566 63.2V108H544.086ZM538.166 72.88V66H563.206V72.88H538.166ZM571.526 108V65.44H580.006V108H571.526ZM571.446 59.28V50.8H580.246V59.28H571.446ZM608.848 108.96C604.688 108.96 601.088 108.053 598.048 106.24C595.061 104.427 592.741 101.84 591.088 98.48C589.488 95.12 588.688 91.2 588.688 86.72C588.688 82.24 589.488 78.3467 591.088 75.04C592.741 71.68 595.061 69.0933 598.048 67.28C601.035 65.4133 604.555 64.48 608.608 64.48C612.448 64.48 615.835 65.3867 618.768 67.2C621.701 68.96 623.968 71.52 625.568 74.88C627.221 78.24 628.048 82.2933 628.048 87.04V89.2H597.488C597.701 93.36 598.795 96.48 600.768 98.56C602.795 100.64 605.515 101.68 608.928 101.68C611.435 101.68 613.515 101.093 615.168 99.92C616.821 98.7467 617.968 97.1733 618.608 95.2L627.408 95.76C626.288 99.7067 624.075 102.907 620.768 105.36C617.515 107.76 613.541 108.96 608.848 108.96ZM597.488 82.8H619.088C618.821 79.0133 617.728 76.2133 615.808 74.4C613.941 72.5867 611.541 71.68 608.608 71.68C605.568 71.68 603.061 72.64 601.088 74.56C599.168 76.4267 597.968 79.1733 597.488 82.8ZM651.761 108.96C648.134 108.96 644.961 108.053 642.241 106.24C639.574 104.427 637.521 101.867 636.081 98.56C634.694 95.2 634.001 91.2533 634.001 86.72C634.001 82.1867 634.721 78.2667 636.161 74.96C637.601 71.6 639.654 69.0133 642.321 67.2C644.987 65.3867 648.134 64.48 651.761 64.48C654.694 64.48 657.307 65.0933 659.601 66.32C661.894 67.5467 663.627 69.2533 664.801 71.44V51.2H673.281V108H665.361L665.121 101.6C663.947 103.893 662.161 105.707 659.761 107.04C657.414 108.32 654.747 108.96 651.761 108.96ZM654.001 101.6C656.294 101.6 658.241 101.013 659.841 99.84C661.441 98.6667 662.667 96.96 663.521 94.72C664.374 92.48 664.801 89.8133 664.801 86.72C664.801 83.52 664.374 80.8267 663.521 78.64C662.667 76.4 661.441 74.72 659.841 73.6C658.241 72.4267 656.294 71.84 654.001 71.84C650.587 71.84 647.867 73.1733 645.841 75.84C643.814 78.4533 642.801 82.08 642.801 86.72C642.801 91.3067 643.814 94.9333 645.841 97.6C647.867 100.267 650.587 101.6 654.001 101.6ZM322.08 212L307.04 155.2H316.24L327.28 200.08L338.32 155.2H347.12L358.16 200.08L369.12 155.2H378.48L363.36 212H353.28L342.72 170.56L332.16 212H322.08ZM401.426 212.96C397.266 212.96 393.666 212.053 390.626 210.24C387.64 208.427 385.32 205.84 383.666 202.48C382.066 199.12 381.266 195.2 381.266 190.72C381.266 186.24 382.066 182.347 383.666 179.04C385.32 175.68 387.64 173.093 390.626 171.28C393.613 169.413 397.133 168.48 401.186 168.48C405.026 168.48 408.413 169.387 411.346 171.2C414.28 172.96 416.546 175.52 418.146 178.88C419.8 182.24 420.626 186.293 420.626 191.04V193.2H390.066C390.28 197.36 391.373 200.48 393.346 202.56C395.373 204.64 398.093 205.68 401.506 205.68C404.013 205.68 406.093 205.093 407.746 203.92C409.4 202.747 410.546 201.173 411.186 199.2L419.986 199.76C418.866 203.707 416.653 206.907 413.346 209.36C410.093 211.76 406.12 212.96 401.426 212.96ZM390.066 186.8H411.666C411.4 183.013 410.306 180.213 408.386 178.4C406.52 176.587 404.12 175.68 401.186 175.68C398.146 175.68 395.64 176.64 393.666 178.56C391.746 180.427 390.546 183.173 390.066 186.8ZM450.419 212.96C447.485 212.96 444.872 212.32 442.579 211.04C440.339 209.707 438.605 207.893 437.379 205.6L437.139 212H429.219V155.2H437.699V175.44C438.819 173.573 440.472 171.947 442.659 170.56C444.899 169.173 447.485 168.48 450.419 168.48C454.099 168.48 457.299 169.387 460.019 171.2C462.739 173.013 464.819 175.6 466.259 178.96C467.752 182.267 468.499 186.187 468.499 190.72C468.499 195.253 467.752 199.2 466.259 202.56C464.819 205.867 462.739 208.427 460.019 210.24C457.299 212.053 454.099 212.96 450.419 212.96ZM449.059 205.6C452.312 205.6 454.899 204.293 456.819 201.68C458.739 199.013 459.699 195.36 459.699 190.72C459.699 186.08 458.739 182.453 456.819 179.84C454.899 177.173 452.339 175.84 449.139 175.84C446.739 175.84 444.685 176.427 442.979 177.6C441.272 178.773 439.965 180.48 439.059 182.72C438.152 184.907 437.699 187.573 437.699 190.72C437.699 193.76 438.152 196.4 439.059 198.64C439.965 200.88 441.272 202.613 442.979 203.84C444.685 205.013 446.712 205.6 449.059 205.6ZM477.109 212V155.2H485.589V179.04L484.549 178.88C485.029 176.48 485.909 174.533 487.189 173.04C488.469 171.493 490.043 170.347 491.909 169.6C493.776 168.853 495.829 168.48 498.069 168.48C501.163 168.48 503.776 169.173 505.909 170.56C508.043 171.893 509.643 173.787 510.709 176.24C511.829 178.693 512.389 181.493 512.389 184.64V212H503.909V186.88C503.909 183.04 503.243 180.213 501.909 178.4C500.629 176.533 498.603 175.6 495.829 175.6C492.736 175.6 490.256 176.587 488.389 178.56C486.523 180.48 485.589 183.307 485.589 187.04V212H477.109ZM540.957 212.96C536.904 212.96 533.358 212.053 530.318 210.24C527.278 208.427 524.931 205.84 523.278 202.48C521.624 199.12 520.798 195.2 520.798 190.72C520.798 186.187 521.624 182.267 523.278 178.96C524.931 175.653 527.278 173.093 530.318 171.28C533.358 169.413 536.904 168.48 540.957 168.48C545.011 168.48 548.558 169.413 551.598 171.28C554.638 173.093 556.984 175.653 558.638 178.96C560.291 182.267 561.118 186.187 561.118 190.72C561.118 195.2 560.291 199.12 558.638 202.48C556.984 205.84 554.638 208.427 551.598 210.24C548.558 212.053 545.011 212.96 540.957 212.96ZM540.957 205.6C544.584 205.6 547.384 204.293 549.358 201.68C551.331 199.013 552.318 195.36 552.318 190.72C552.318 186.08 551.331 182.453 549.358 179.84C547.384 177.173 544.584 175.84 540.957 175.84C537.384 175.84 534.584 177.173 532.558 179.84C530.584 182.453 529.598 186.08 529.598 190.72C529.598 195.36 530.584 199.013 532.558 201.68C534.584 204.293 537.384 205.6 540.957 205.6ZM587.207 212.96C583.154 212.96 579.608 212.053 576.568 210.24C573.528 208.427 571.181 205.84 569.528 202.48C567.874 199.12 567.048 195.2 567.048 190.72C567.048 186.187 567.874 182.267 569.528 178.96C571.181 175.653 573.528 173.093 576.568 171.28C579.608 169.413 583.154 168.48 587.207 168.48C591.261 168.48 594.808 169.413 597.848 171.28C600.888 173.093 603.234 175.653 604.888 178.96C606.541 182.267 607.368 186.187 607.368 190.72C607.368 195.2 606.541 199.12 604.888 202.48C603.234 205.84 600.888 208.427 597.848 210.24C594.808 212.053 591.261 212.96 587.207 212.96ZM587.207 205.6C590.834 205.6 593.634 204.293 595.608 201.68C597.581 199.013 598.568 195.36 598.568 190.72C598.568 186.08 597.581 182.453 595.608 179.84C593.634 177.173 590.834 175.84 587.207 175.84C583.634 175.84 580.834 177.173 578.808 179.84C576.834 182.453 575.848 186.08 575.848 190.72C575.848 195.36 576.834 199.013 578.808 201.68C580.834 204.293 583.634 205.6 587.207 205.6ZM615.938 212V155.2H624.418V190.48L643.538 169.44H654.258L637.618 187.36L654.898 212H645.138L631.938 192.64L624.418 200.64V212H615.938ZM676.556 212.96C672.556 212.96 669.17 212.347 666.396 211.12C663.676 209.893 661.57 208.213 660.076 206.08C658.583 203.893 657.73 201.387 657.516 198.56L666.236 198.16C666.663 200.507 667.676 202.373 669.276 203.76C670.876 205.147 673.303 205.84 676.556 205.84C679.223 205.84 681.33 205.413 682.876 204.56C684.423 203.707 685.196 202.347 685.196 200.48C685.196 199.467 684.93 198.613 684.396 197.92C683.916 197.173 682.956 196.56 681.516 196.08C680.076 195.547 677.943 195.04 675.116 194.56C670.903 193.76 667.596 192.827 665.196 191.76C662.796 190.693 661.09 189.333 660.076 187.68C659.063 186.027 658.556 184.027 658.556 181.68C658.556 177.787 659.996 174.613 662.876 172.16C665.81 169.707 670.023 168.48 675.516 168.48C679.196 168.48 682.29 169.12 684.796 170.4C687.303 171.627 689.25 173.307 690.636 175.44C692.076 177.52 692.983 179.867 693.356 182.48L684.636 182.96C684.37 181.467 683.836 180.187 683.036 179.12C682.29 178 681.276 177.147 679.996 176.56C678.716 175.92 677.196 175.6 675.436 175.6C672.716 175.6 670.69 176.133 669.356 177.2C668.023 178.267 667.356 179.653 667.356 181.36C667.356 182.64 667.65 183.68 668.236 184.48C668.876 185.28 669.89 185.947 671.276 186.48C672.663 186.96 674.503 187.387 676.796 187.76C681.223 188.507 684.69 189.44 687.196 190.56C689.703 191.627 691.463 192.96 692.476 194.56C693.49 196.16 693.996 198.107 693.996 200.4C693.996 203.067 693.25 205.333 691.756 207.2C690.263 209.067 688.21 210.507 685.596 211.52C682.983 212.48 679.97 212.96 676.556 212.96Z" fill="black"/>
</g>
<defs>
<clipPath id="clip0_9_8">
<rect width="698" height="264" fill="white"/>
</clipPath>
</defs>
</svg>
